# xmcd
#
# Track frame offsets:
#        150
#        928
#        19665
#        41571
#        57179
#        74388
#        93756
#        113687
#        133259
#        153803
#        171051
#
# Disc length: 2524 seconds
#
# Revision: 0
# Processed by: cddbd v1.5.1PL2 Copyright (c) Steve Scherf et al.
# Submitted via: ExactAudioCopy v0.95b3
#
DISCID=7b09da0b
DTITLE=Last Winter - transmission: skyline
DYEAR=2005
DGENRE=Pop
TTITLE0=1 Transmission
TTITLE1=2 Chasing Lights
TTITLE2=3 By the Way
TTITLE3=4 For All Times
TTITLE4=5 Standing Here
TTITLE5=6 Starlight Drive
TTITLE6=7 December
TTITLE7=8 Autograph
TTITLE8=9 Dont Forget to Write
TTITLE9=10 Vela to Norma
TTITLE10=11 Maybe Tomorrow
EXTD=
EXTT0=
EXTT1=
EXTT2=
EXTT3=
EXTT4=
EXTT5=
EXTT6=
EXTT7=
EXTT8=
EXTT9=
EXTT10=
PLAYORDER=
